<svg xmlns="http://www.w3.org/2000/svg" width="860" height="544" viewBox="0 0 860 544" font-family="Segoe UI,Helvetica,Arial,sans-serif">
<rect width="860" height="544" rx="14" fill="#f6f8fb" stroke="#e5e9f0"/>
<text x="28" y="40" font-size="18" font-weight="600" fill="#0f1722">Candidate selection hub — Acme Robotics · Senior Platform Engineer</text>
<text x="28" y="62" font-size="13" fill="#6b7a8d">Six candidates ranked by the deterministic matcher · scores carry a rationale · one-click select → CRM</text>
<rect x="28" y="88" width="804" height="54" rx="12" fill="#ffffff" stroke="#a9d6d2" stroke-width="2"/>
<rect x="42" y="99" width="44" height="32" rx="8" fill="#e7f6ec"/>
<text x="64" y="120" font-size="16" font-weight="700" fill="#15803d" text-anchor="middle">92</text>
<text x="104" y="112" font-size="15" font-weight="600" fill="#0f1722">Dana Whitfield</text>
<text x="104" y="130" font-size="12.5" fill="#6b7a8d">senior · remote · 4/4 required skills</text>
<rect x="710" y="100" width="106" height="30" rx="8" fill="#1f6f6b"/>
<text x="763" y="120" font-size="12.5" font-weight="600" fill="#ffffff" text-anchor="middle">✓ Selected</text>
<rect x="28" y="152" width="804" height="54" rx="12" fill="#ffffff" stroke="#e5e9f0" stroke-width="1"/>
<rect x="42" y="163" width="44" height="32" rx="8" fill="#e7f6ec"/>
<text x="64" y="184" font-size="16" font-weight="700" fill="#15803d" text-anchor="middle">92</text>
<text x="104" y="176" font-size="15" font-weight="600" fill="#0f1722">Aisha Okafor</text>
<text x="104" y="194" font-size="12.5" fill="#6b7a8d">senior · remote · 4/4 required skills</text>
<rect x="710" y="164" width="106" height="30" rx="8" fill="#eef2f7"/>
<text x="763" y="184" font-size="12.5" font-weight="600" fill="#3b4a5a" text-anchor="middle">Select</text>
<rect x="28" y="216" width="804" height="54" rx="12" fill="#ffffff" stroke="#e5e9f0" stroke-width="1"/>
<rect x="42" y="227" width="44" height="32" rx="8" fill="#e7f6ec"/>
<text x="64" y="248" font-size="16" font-weight="700" fill="#15803d" text-anchor="middle">78</text>
<text x="104" y="240" font-size="15" font-weight="600" fill="#0f1722">Lena Kowalski</text>
<text x="104" y="258" font-size="12.5" fill="#6b7a8d">lead · remote · seniority adjacent</text>
<rect x="710" y="228" width="106" height="30" rx="8" fill="#eef2f7"/>
<text x="763" y="248" font-size="12.5" font-weight="600" fill="#3b4a5a" text-anchor="middle">Select</text>
<rect x="28" y="280" width="804" height="54" rx="12" fill="#ffffff" stroke="#e5e9f0" stroke-width="1"/>
<rect x="42" y="291" width="44" height="32" rx="8" fill="#e7f6ec"/>
<text x="64" y="312" font-size="16" font-weight="700" fill="#15803d" text-anchor="middle">77</text>
<text x="104" y="304" font-size="15" font-weight="600" fill="#0f1722">Sofia Marchetti</text>
<text x="104" y="322" font-size="12.5" fill="#6b7a8d">senior · hybrid · work-pref workable</text>
<rect x="710" y="292" width="106" height="30" rx="8" fill="#eef2f7"/>
<text x="763" y="312" font-size="12.5" font-weight="600" fill="#3b4a5a" text-anchor="middle">Select</text>
<rect x="28" y="344" width="804" height="54" rx="12" fill="#ffffff" stroke="#e5e9f0" stroke-width="1"/>
<rect x="42" y="355" width="44" height="32" rx="8" fill="#fdf3e3"/>
<text x="64" y="376" font-size="16" font-weight="700" fill="#b45309" text-anchor="middle">63</text>
<text x="104" y="368" font-size="15" font-weight="600" fill="#0f1722">Devin Park</text>
<text x="104" y="386" font-size="12.5" fill="#6b7a8d">mid · 2/4 required · missing k8s, terraform</text>
<rect x="710" y="356" width="106" height="30" rx="8" fill="#eef2f7"/>
<text x="763" y="376" font-size="12.5" font-weight="600" fill="#3b4a5a" text-anchor="middle">Select</text>
<rect x="28" y="408" width="804" height="54" rx="12" fill="#ffffff" stroke="#e5e9f0" stroke-width="1"/>
<rect x="42" y="419" width="44" height="32" rx="8" fill="#fdf3e3"/>
<text x="64" y="440" font-size="16" font-weight="700" fill="#b45309" text-anchor="middle">61</text>
<text x="104" y="432" font-size="15" font-weight="600" fill="#0f1722">Priya Anand</text>
<text x="104" y="450" font-size="12.5" fill="#6b7a8d">lead · comp above band</text>
<rect x="710" y="420" width="106" height="30" rx="8" fill="#eef2f7"/>
<text x="763" y="440" font-size="12.5" font-weight="600" fill="#3b4a5a" text-anchor="middle">Select</text>
<text x="28" y="494" font-size="12.5" fill="#0f6e56">LLM extracts the inputs; tested Python computes every score. No black box.</text>
</svg>
